<mxfile host="app.diagrams.net" modified="2021-05-28T17:28:35.904Z" agent="5.0 (Windows NT 10.0; Win64; x64) AppleWebKit/537.36 (KHTML, like Gecko) Chrome/90.0.4430.212 Safari/537.36" etag="4a2MbU0SwKGKJd6HijUc" version="14.7.0" type="github">
  <diagram id="c4hljf-op57V5p_WFwa3" name="Page-1">
    <mxGraphModel dx="782" dy="478" grid="1" gridSize="10" guides="1" tooltips="1" connect="1" arrows="1" fold="1" page="1" pageScale="1" pageWidth="850" pageHeight="1100" math="0" shadow="0">
      <root>
        <mxCell id="0" />
        <mxCell id="1" parent="0" />
        <mxCell id="hFf1qqq5Lb1legIOFx4f-42" value="&lt;span style=&quot;font-size: 24px&quot;&gt;A&lt;/span&gt;&lt;br&gt;&lt;span style=&quot;font-size: 24px&quot;&gt;D&lt;/span&gt;&lt;br&gt;&lt;span style=&quot;font-size: 24px&quot;&gt;C&lt;/span&gt;&lt;br&gt;&lt;p&gt;&lt;font style=&quot;font-size: 24px&quot;&gt;15&lt;/font&gt;&lt;/p&gt;&lt;p&gt;&lt;/p&gt;" style="rounded=0;whiteSpace=wrap;html=1;fontStyle=1;fillColor=none;" parent="1" vertex="1">
          <mxGeometry x="725" y="120" width="60" height="360" as="geometry" />
        </mxCell>
        <mxCell id="hFf1qqq5Lb1legIOFx4f-43" value="&lt;span style=&quot;font-size: 24px&quot;&gt;A&lt;/span&gt;&lt;br&gt;&lt;span style=&quot;font-size: 24px&quot;&gt;D&lt;/span&gt;&lt;br&gt;&lt;span style=&quot;font-size: 24px&quot;&gt;C&lt;/span&gt;&lt;br&gt;&lt;p&gt;&lt;font style=&quot;font-size: 24px&quot;&gt;14&lt;/font&gt;&lt;/p&gt;&lt;p&gt;&lt;/p&gt;" style="rounded=0;whiteSpace=wrap;html=1;fontStyle=1;fillColor=none;" parent="1" vertex="1">
          <mxGeometry x="665" y="120" width="60" height="360" as="geometry" />
        </mxCell>
        <mxCell id="8QlNRYFuqzHitPFtihIb-22" value="&lt;span style=&quot;font-size: 24px&quot;&gt;L&lt;br&gt;o&lt;br&gt;c&lt;br&gt;a&lt;br&gt;l&lt;br&gt;&lt;br&gt;C&lt;/span&gt;&lt;br style=&quot;font-size: 24px&quot;&gt;&lt;span style=&quot;font-size: 24px&quot;&gt;D&lt;/span&gt;&lt;br style=&quot;font-size: 24px&quot;&gt;&lt;span style=&quot;font-size: 24px&quot;&gt;T&lt;/span&gt;" style="rounded=0;whiteSpace=wrap;html=1;fontStyle=1;strokeWidth=3;fillColor=none;" parent="1" vertex="1">
          <mxGeometry x="85" y="120" width="120" height="360" as="geometry" />
        </mxCell>
        <mxCell id="hFf1qqq5Lb1legIOFx4f-27" value="" style="rounded=0;whiteSpace=wrap;html=1;fillColor=none;strokeWidth=3;" parent="1" vertex="1">
          <mxGeometry x="85" y="120" width="760" height="360" as="geometry" />
        </mxCell>
        <mxCell id="69VbU7b6xLRJc8Qlh2rl-4" value="" style="endArrow=classic;html=1;strokeColor=#FF6666;fillColor=#FF6666;gradientColor=none;opacity=60;strokeWidth=2;startArrow=oval;startFill=1;startSize=9;" parent="1" edge="1">
          <mxGeometry width="50" height="50" relative="1" as="geometry">
            <mxPoint x="235" y="145" as="sourcePoint" />
            <mxPoint x="185" y="145" as="targetPoint" />
          </mxGeometry>
        </mxCell>
        <mxCell id="69VbU7b6xLRJc8Qlh2rl-22" value="" style="endArrow=classic;html=1;fillColor=#FF6666;gradientColor=none;opacity=60;strokeWidth=2;strokeColor=#007FFF;" parent="1" edge="1">
          <mxGeometry width="50" height="50" relative="1" as="geometry">
            <mxPoint x="185" y="305" as="sourcePoint" />
            <mxPoint x="225" y="305" as="targetPoint" />
          </mxGeometry>
        </mxCell>
        <mxCell id="hFf1qqq5Lb1legIOFx4f-32" value="" style="endArrow=classic;html=1;strokeColor=#FF6666;fillColor=#FF6666;gradientColor=none;opacity=60;strokeWidth=2;startArrow=oval;startFill=1;startSize=9;" parent="1" edge="1">
          <mxGeometry width="50" height="50" relative="1" as="geometry">
            <mxPoint x="295" y="165" as="sourcePoint" />
            <mxPoint x="185" y="165" as="targetPoint" />
          </mxGeometry>
        </mxCell>
        <mxCell id="hFf1qqq5Lb1legIOFx4f-34" value="" style="endArrow=classic;html=1;strokeColor=#FF6666;fillColor=#FF6666;gradientColor=none;opacity=60;strokeWidth=2;startArrow=oval;startFill=1;startSize=9;" parent="1" edge="1">
          <mxGeometry width="50" height="50" relative="1" as="geometry">
            <mxPoint x="355" y="185" as="sourcePoint" />
            <mxPoint x="185" y="185" as="targetPoint" />
          </mxGeometry>
        </mxCell>
        <mxCell id="hFf1qqq5Lb1legIOFx4f-36" value="" style="endArrow=classic;html=1;strokeColor=#FF6666;fillColor=#FF6666;gradientColor=none;opacity=60;strokeWidth=2;startArrow=oval;startFill=1;startSize=9;" parent="1" edge="1">
          <mxGeometry width="50" height="50" relative="1" as="geometry">
            <mxPoint x="415" y="205" as="sourcePoint" />
            <mxPoint x="185" y="205" as="targetPoint" />
          </mxGeometry>
        </mxCell>
        <mxCell id="hFf1qqq5Lb1legIOFx4f-45" value="" style="endArrow=classic;html=1;strokeColor=#FF6666;fillColor=#FF6666;gradientColor=none;opacity=60;strokeWidth=2;startArrow=oval;startFill=1;startSize=9;" parent="1" edge="1">
          <mxGeometry x="585" y="145" width="50" height="50" as="geometry">
            <mxPoint x="635" y="145" as="sourcePoint" />
            <mxPoint x="240" y="145" as="targetPoint" />
          </mxGeometry>
        </mxCell>
        <mxCell id="hFf1qqq5Lb1legIOFx4f-46" value="" style="endArrow=classic;html=1;strokeColor=#FF6666;fillColor=#FF6666;gradientColor=none;opacity=60;strokeWidth=2;startArrow=oval;startFill=1;startSize=9;" parent="1" edge="1">
          <mxGeometry x="585" y="145" width="50" height="50" as="geometry">
            <mxPoint x="695" y="165" as="sourcePoint" />
            <mxPoint x="300" y="165" as="targetPoint" />
          </mxGeometry>
        </mxCell>
        <mxCell id="hFf1qqq5Lb1legIOFx4f-47" value="" style="endArrow=classic;html=1;strokeColor=#FF6666;fillColor=#FF6666;gradientColor=none;opacity=60;strokeWidth=2;startArrow=oval;startFill=1;startSize=9;" parent="1" edge="1">
          <mxGeometry x="585" y="145" width="50" height="50" as="geometry">
            <mxPoint x="755" y="185" as="sourcePoint" />
            <mxPoint x="360" y="185" as="targetPoint" />
          </mxGeometry>
        </mxCell>
        <mxCell id="hFf1qqq5Lb1legIOFx4f-48" value="" style="endArrow=classic;html=1;strokeColor=#FF6666;fillColor=#FF6666;gradientColor=none;opacity=60;strokeWidth=2;startArrow=oval;startFill=1;startSize=9;" parent="1" edge="1">
          <mxGeometry x="585" y="145" width="50" height="50" as="geometry">
            <mxPoint x="815" y="205" as="sourcePoint" />
            <mxPoint x="420" y="205" as="targetPoint" />
          </mxGeometry>
        </mxCell>
        <mxCell id="hFf1qqq5Lb1legIOFx4f-67" value="" style="endArrow=none;dashed=1;html=1;startSize=9;strokeWidth=5;dashPattern=1 1;" parent="1" edge="1">
          <mxGeometry width="50" height="50" relative="1" as="geometry">
            <mxPoint x="480" y="270" as="sourcePoint" />
            <mxPoint x="570" y="270" as="targetPoint" />
          </mxGeometry>
        </mxCell>
        <mxCell id="hFf1qqq5Lb1legIOFx4f-68" value="" style="endArrow=classic;html=1;fillColor=#FF6666;gradientColor=none;opacity=60;strokeWidth=2;strokeColor=#007FFF;" parent="1" edge="1">
          <mxGeometry width="50" height="50" relative="1" as="geometry">
            <mxPoint x="185" y="315" as="sourcePoint" />
            <mxPoint x="285" y="315" as="targetPoint" />
          </mxGeometry>
        </mxCell>
        <mxCell id="hFf1qqq5Lb1legIOFx4f-69" value="" style="endArrow=classic;html=1;fillColor=#FF6666;gradientColor=none;opacity=60;strokeWidth=2;strokeColor=#007FFF;" parent="1" edge="1">
          <mxGeometry width="50" height="50" relative="1" as="geometry">
            <mxPoint x="185" y="325" as="sourcePoint" />
            <mxPoint x="345" y="325" as="targetPoint" />
          </mxGeometry>
        </mxCell>
        <mxCell id="hFf1qqq5Lb1legIOFx4f-70" value="" style="endArrow=classic;html=1;fillColor=#FF6666;gradientColor=none;opacity=60;strokeWidth=2;strokeColor=#007FFF;" parent="1" edge="1">
          <mxGeometry width="50" height="50" relative="1" as="geometry">
            <mxPoint x="185" y="335" as="sourcePoint" />
            <mxPoint x="405" y="335" as="targetPoint" />
          </mxGeometry>
        </mxCell>
        <mxCell id="hFf1qqq5Lb1legIOFx4f-71" value="" style="endArrow=classic;html=1;fillColor=#FF6666;gradientColor=none;opacity=60;strokeWidth=2;strokeColor=#007FFF;" parent="1" edge="1">
          <mxGeometry width="50" height="50" relative="1" as="geometry">
            <mxPoint x="185" y="385" as="sourcePoint" />
            <mxPoint x="625" y="385" as="targetPoint" />
          </mxGeometry>
        </mxCell>
        <mxCell id="hFf1qqq5Lb1legIOFx4f-72" value="" style="endArrow=classic;html=1;fillColor=#FF6666;gradientColor=none;opacity=60;strokeWidth=2;strokeColor=#007FFF;" parent="1" edge="1">
          <mxGeometry width="50" height="50" relative="1" as="geometry">
            <mxPoint x="185" y="395" as="sourcePoint" />
            <mxPoint x="685" y="395" as="targetPoint" />
          </mxGeometry>
        </mxCell>
        <mxCell id="hFf1qqq5Lb1legIOFx4f-73" value="" style="endArrow=classic;html=1;fillColor=#FF6666;gradientColor=none;opacity=60;strokeWidth=2;strokeColor=#007FFF;" parent="1" edge="1">
          <mxGeometry width="50" height="50" relative="1" as="geometry">
            <mxPoint x="185" y="405" as="sourcePoint" />
            <mxPoint x="745" y="405" as="targetPoint" />
          </mxGeometry>
        </mxCell>
        <mxCell id="hFf1qqq5Lb1legIOFx4f-74" value="" style="endArrow=classic;html=1;fillColor=#FF6666;gradientColor=none;opacity=60;strokeWidth=2;strokeColor=#007FFF;" parent="1" edge="1">
          <mxGeometry width="50" height="50" relative="1" as="geometry">
            <mxPoint x="185" y="415" as="sourcePoint" />
            <mxPoint x="805" y="415" as="targetPoint" />
          </mxGeometry>
        </mxCell>
        <mxCell id="8QlNRYFuqzHitPFtihIb-23" value="&lt;span style=&quot;font-size: 24px&quot;&gt;A&lt;/span&gt;&lt;br&gt;&lt;span style=&quot;font-size: 24px&quot;&gt;D&lt;/span&gt;&lt;br&gt;&lt;span style=&quot;font-size: 24px&quot;&gt;C&lt;/span&gt;&lt;br&gt;&lt;p&gt;&lt;font style=&quot;font-size: 24px&quot;&gt;1&lt;/font&gt;&lt;/p&gt;&lt;p&gt;&lt;/p&gt;" style="rounded=0;whiteSpace=wrap;html=1;fontStyle=1;fillColor=none;" parent="1" vertex="1">
          <mxGeometry x="205" y="120" width="60" height="360" as="geometry" />
        </mxCell>
        <mxCell id="8QlNRYFuqzHitPFtihIb-76" style="edgeStyle=orthogonalEdgeStyle;rounded=0;orthogonalLoop=1;jettySize=auto;html=1;exitX=0.5;exitY=1;exitDx=0;exitDy=0;startArrow=block;startFill=1;endArrow=none;endFill=0;shape=flexArrow;fontStyle=1;fillColor=#647687;strokeColor=#314354;" parent="1" edge="1">
          <mxGeometry relative="1" as="geometry">
            <mxPoint x="634.5" y="520" as="targetPoint" />
            <mxPoint x="634.5" y="480" as="sourcePoint" />
            <Array as="points">
              <mxPoint x="635" y="500" />
              <mxPoint x="635" y="500" />
            </Array>
          </mxGeometry>
        </mxCell>
        <mxCell id="8QlNRYFuqzHitPFtihIb-77" value="&lt;pre&gt;&lt;font style=&quot;font-size: 24px&quot;&gt;Analog Signals from Detectors&lt;/font&gt;&lt;/pre&gt;" style="rounded=1;whiteSpace=wrap;html=1;fontStyle=1" parent="1" vertex="1">
          <mxGeometry x="205" y="520" width="640" height="60" as="geometry" />
        </mxCell>
        <mxCell id="8QlNRYFuqzHitPFtihIb-44" style="edgeStyle=orthogonalEdgeStyle;rounded=0;orthogonalLoop=1;jettySize=auto;html=1;fillColor=#e51400;startArrow=oval;startFill=1;strokeWidth=1;fontStyle=1;strokeColor=#FF6666;" parent="1" source="8QlNRYFuqzHitPFtihIb-23" edge="1">
          <mxGeometry relative="1" as="geometry">
            <mxPoint x="235" y="80" as="targetPoint" />
          </mxGeometry>
        </mxCell>
        <mxCell id="hFf1qqq5Lb1legIOFx4f-1" value="&lt;pre&gt;&lt;font style=&quot;font-size: 24px&quot;&gt;Data Packet Output&lt;/font&gt;&lt;/pre&gt;" style="rounded=1;whiteSpace=wrap;html=1;fontStyle=1" parent="1" vertex="1">
          <mxGeometry x="205" y="20" width="640" height="60" as="geometry" />
        </mxCell>
        <mxCell id="hFf1qqq5Lb1legIOFx4f-31" value="&lt;span style=&quot;font-size: 24px&quot;&gt;A&lt;/span&gt;&lt;br&gt;&lt;span style=&quot;font-size: 24px&quot;&gt;D&lt;/span&gt;&lt;br&gt;&lt;span style=&quot;font-size: 24px&quot;&gt;C&lt;/span&gt;&lt;br&gt;&lt;p&gt;&lt;font style=&quot;font-size: 24px&quot;&gt;2&lt;/font&gt;&lt;/p&gt;&lt;p&gt;&lt;/p&gt;" style="rounded=0;whiteSpace=wrap;html=1;fontStyle=1;fillColor=none;" parent="1" vertex="1">
          <mxGeometry x="265" y="120" width="60" height="360" as="geometry" />
        </mxCell>
        <mxCell id="hFf1qqq5Lb1legIOFx4f-33" value="&lt;span style=&quot;font-size: 24px&quot;&gt;A&lt;/span&gt;&lt;br&gt;&lt;span style=&quot;font-size: 24px&quot;&gt;D&lt;/span&gt;&lt;br&gt;&lt;span style=&quot;font-size: 24px&quot;&gt;C&lt;/span&gt;&lt;br&gt;&lt;p&gt;&lt;font style=&quot;font-size: 24px&quot;&gt;3&lt;/font&gt;&lt;/p&gt;&lt;p&gt;&lt;/p&gt;" style="rounded=0;whiteSpace=wrap;html=1;fontStyle=1;fillColor=none;" parent="1" vertex="1">
          <mxGeometry x="325" y="120" width="60" height="360" as="geometry" />
        </mxCell>
        <mxCell id="hFf1qqq5Lb1legIOFx4f-35" value="&lt;span style=&quot;font-size: 24px&quot;&gt;A&lt;/span&gt;&lt;br&gt;&lt;span style=&quot;font-size: 24px&quot;&gt;D&lt;/span&gt;&lt;br&gt;&lt;span style=&quot;font-size: 24px&quot;&gt;C&lt;/span&gt;&lt;br&gt;&lt;p&gt;&lt;font style=&quot;font-size: 24px&quot;&gt;4&lt;/font&gt;&lt;/p&gt;&lt;p&gt;&lt;/p&gt;" style="rounded=0;whiteSpace=wrap;html=1;fontStyle=1;fillColor=none;" parent="1" vertex="1">
          <mxGeometry x="385" y="120" width="60" height="360" as="geometry" />
        </mxCell>
        <mxCell id="hFf1qqq5Lb1legIOFx4f-41" value="&lt;span style=&quot;font-size: 24px&quot;&gt;A&lt;/span&gt;&lt;br&gt;&lt;span style=&quot;font-size: 24px&quot;&gt;D&lt;/span&gt;&lt;br&gt;&lt;span style=&quot;font-size: 24px&quot;&gt;C&lt;/span&gt;&lt;br&gt;&lt;p&gt;&lt;font style=&quot;font-size: 24px&quot;&gt;16&lt;/font&gt;&lt;/p&gt;&lt;p&gt;&lt;/p&gt;" style="rounded=0;whiteSpace=wrap;html=1;fontStyle=1;fillColor=none;" parent="1" vertex="1">
          <mxGeometry x="785" y="120" width="60" height="360" as="geometry" />
        </mxCell>
        <mxCell id="hFf1qqq5Lb1legIOFx4f-44" value="&lt;span style=&quot;font-size: 24px&quot;&gt;A&lt;/span&gt;&lt;br&gt;&lt;span style=&quot;font-size: 24px&quot;&gt;D&lt;/span&gt;&lt;br&gt;&lt;span style=&quot;font-size: 24px&quot;&gt;C&lt;/span&gt;&lt;br&gt;&lt;p&gt;&lt;font style=&quot;font-size: 24px&quot;&gt;13&lt;/font&gt;&lt;/p&gt;&lt;p&gt;&lt;/p&gt;" style="rounded=0;whiteSpace=wrap;html=1;fontStyle=1;fillColor=none;" parent="1" vertex="1">
          <mxGeometry x="605" y="120" width="60" height="360" as="geometry" />
        </mxCell>
        <mxCell id="hFf1qqq5Lb1legIOFx4f-57" style="edgeStyle=orthogonalEdgeStyle;rounded=0;orthogonalLoop=1;jettySize=auto;html=1;fillColor=#e51400;startArrow=oval;startFill=1;strokeWidth=1;fontStyle=1;strokeColor=#FF6666;" parent="1" edge="1">
          <mxGeometry relative="1" as="geometry">
            <mxPoint x="295" y="80" as="targetPoint" />
            <mxPoint x="295" y="120" as="sourcePoint" />
          </mxGeometry>
        </mxCell>
        <mxCell id="hFf1qqq5Lb1legIOFx4f-60" value="" style="group" parent="1" vertex="1" connectable="0">
          <mxGeometry x="355" y="80" width="60" height="40" as="geometry" />
        </mxCell>
        <mxCell id="hFf1qqq5Lb1legIOFx4f-58" style="edgeStyle=orthogonalEdgeStyle;rounded=0;orthogonalLoop=1;jettySize=auto;html=1;fillColor=#e51400;startArrow=oval;startFill=1;strokeWidth=1;fontStyle=1;strokeColor=#FF6666;" parent="hFf1qqq5Lb1legIOFx4f-60" edge="1">
          <mxGeometry relative="1" as="geometry">
            <mxPoint as="targetPoint" />
            <mxPoint y="40" as="sourcePoint" />
          </mxGeometry>
        </mxCell>
        <mxCell id="hFf1qqq5Lb1legIOFx4f-59" style="edgeStyle=orthogonalEdgeStyle;rounded=0;orthogonalLoop=1;jettySize=auto;html=1;fillColor=#e51400;startArrow=oval;startFill=1;strokeWidth=1;fontStyle=1;strokeColor=#FF6666;" parent="hFf1qqq5Lb1legIOFx4f-60" edge="1">
          <mxGeometry relative="1" as="geometry">
            <mxPoint x="60" as="targetPoint" />
            <mxPoint x="60" y="40" as="sourcePoint" />
          </mxGeometry>
        </mxCell>
        <mxCell id="hFf1qqq5Lb1legIOFx4f-66" value="" style="group" parent="1" vertex="1" connectable="0">
          <mxGeometry x="635" y="80" width="180" height="40" as="geometry" />
        </mxCell>
        <mxCell id="hFf1qqq5Lb1legIOFx4f-61" style="edgeStyle=orthogonalEdgeStyle;rounded=0;orthogonalLoop=1;jettySize=auto;html=1;fillColor=#e51400;startArrow=oval;startFill=1;strokeWidth=1;fontStyle=1;strokeColor=#FF6666;" parent="hFf1qqq5Lb1legIOFx4f-66" edge="1">
          <mxGeometry relative="1" as="geometry">
            <mxPoint as="targetPoint" />
            <mxPoint y="40" as="sourcePoint" />
          </mxGeometry>
        </mxCell>
        <mxCell id="hFf1qqq5Lb1legIOFx4f-62" style="edgeStyle=orthogonalEdgeStyle;rounded=0;orthogonalLoop=1;jettySize=auto;html=1;fillColor=#e51400;startArrow=oval;startFill=1;strokeWidth=1;fontStyle=1;strokeColor=#FF6666;" parent="hFf1qqq5Lb1legIOFx4f-66" edge="1">
          <mxGeometry relative="1" as="geometry">
            <mxPoint x="60" as="targetPoint" />
            <mxPoint x="60" y="40" as="sourcePoint" />
          </mxGeometry>
        </mxCell>
        <mxCell id="hFf1qqq5Lb1legIOFx4f-63" value="" style="group" parent="hFf1qqq5Lb1legIOFx4f-66" vertex="1" connectable="0">
          <mxGeometry x="120" width="60" height="40" as="geometry" />
        </mxCell>
        <mxCell id="hFf1qqq5Lb1legIOFx4f-64" style="edgeStyle=orthogonalEdgeStyle;rounded=0;orthogonalLoop=1;jettySize=auto;html=1;fillColor=#e51400;startArrow=oval;startFill=1;strokeWidth=1;fontStyle=1;strokeColor=#FF6666;" parent="hFf1qqq5Lb1legIOFx4f-63" edge="1">
          <mxGeometry relative="1" as="geometry">
            <mxPoint as="targetPoint" />
            <mxPoint y="40" as="sourcePoint" />
          </mxGeometry>
        </mxCell>
        <mxCell id="hFf1qqq5Lb1legIOFx4f-65" style="edgeStyle=orthogonalEdgeStyle;rounded=0;orthogonalLoop=1;jettySize=auto;html=1;fillColor=#e51400;startArrow=oval;startFill=1;strokeWidth=1;fontStyle=1;strokeColor=#FF6666;" parent="hFf1qqq5Lb1legIOFx4f-63" edge="1">
          <mxGeometry relative="1" as="geometry">
            <mxPoint x="60" as="targetPoint" />
            <mxPoint x="60" y="40" as="sourcePoint" />
          </mxGeometry>
        </mxCell>
        <mxCell id="hFf1qqq5Lb1legIOFx4f-78" style="edgeStyle=orthogonalEdgeStyle;rounded=0;orthogonalLoop=1;jettySize=auto;html=1;exitX=0.5;exitY=1;exitDx=0;exitDy=0;startArrow=block;startFill=1;endArrow=none;endFill=0;shape=flexArrow;fontStyle=1;fillColor=#647687;strokeColor=#314354;" parent="1" edge="1">
          <mxGeometry relative="1" as="geometry">
            <mxPoint x="694.5" y="520" as="targetPoint" />
            <mxPoint x="694.5" y="480" as="sourcePoint" />
          </mxGeometry>
        </mxCell>
        <mxCell id="hFf1qqq5Lb1legIOFx4f-79" style="edgeStyle=orthogonalEdgeStyle;rounded=0;orthogonalLoop=1;jettySize=auto;html=1;exitX=0.5;exitY=1;exitDx=0;exitDy=0;startArrow=block;startFill=1;endArrow=none;endFill=0;shape=flexArrow;fontStyle=1;fillColor=#647687;strokeColor=#314354;" parent="1" edge="1">
          <mxGeometry relative="1" as="geometry">
            <mxPoint x="754.5" y="520" as="targetPoint" />
            <mxPoint x="754.5" y="480" as="sourcePoint" />
          </mxGeometry>
        </mxCell>
        <mxCell id="hFf1qqq5Lb1legIOFx4f-80" style="edgeStyle=orthogonalEdgeStyle;rounded=0;orthogonalLoop=1;jettySize=auto;html=1;exitX=0.5;exitY=1;exitDx=0;exitDy=0;startArrow=block;startFill=1;endArrow=none;endFill=0;shape=flexArrow;fontStyle=1;fillColor=#647687;strokeColor=#314354;" parent="1" edge="1">
          <mxGeometry relative="1" as="geometry">
            <mxPoint x="815" y="520" as="targetPoint" />
            <mxPoint x="815" y="480" as="sourcePoint" />
          </mxGeometry>
        </mxCell>
        <mxCell id="hFf1qqq5Lb1legIOFx4f-81" style="edgeStyle=orthogonalEdgeStyle;rounded=0;orthogonalLoop=1;jettySize=auto;html=1;exitX=0.5;exitY=1;exitDx=0;exitDy=0;startArrow=block;startFill=1;endArrow=none;endFill=0;shape=flexArrow;fontStyle=1;fillColor=#647687;strokeColor=#314354;" parent="1" edge="1">
          <mxGeometry relative="1" as="geometry">
            <mxPoint x="234.5" y="520" as="targetPoint" />
            <mxPoint x="234.5" y="480" as="sourcePoint" />
          </mxGeometry>
        </mxCell>
        <mxCell id="hFf1qqq5Lb1legIOFx4f-82" style="edgeStyle=orthogonalEdgeStyle;rounded=0;orthogonalLoop=1;jettySize=auto;html=1;exitX=0.5;exitY=1;exitDx=0;exitDy=0;startArrow=block;startFill=1;endArrow=none;endFill=0;shape=flexArrow;fontStyle=1;fillColor=#647687;strokeColor=#314354;" parent="1" edge="1">
          <mxGeometry relative="1" as="geometry">
            <mxPoint x="294.5" y="520" as="targetPoint" />
            <mxPoint x="294.5" y="480" as="sourcePoint" />
          </mxGeometry>
        </mxCell>
        <mxCell id="hFf1qqq5Lb1legIOFx4f-83" style="edgeStyle=orthogonalEdgeStyle;rounded=0;orthogonalLoop=1;jettySize=auto;html=1;exitX=0.5;exitY=1;exitDx=0;exitDy=0;startArrow=block;startFill=1;endArrow=none;endFill=0;shape=flexArrow;fontStyle=1;fillColor=#647687;strokeColor=#314354;" parent="1" edge="1">
          <mxGeometry relative="1" as="geometry">
            <mxPoint x="354" y="520" as="targetPoint" />
            <mxPoint x="354" y="480" as="sourcePoint" />
          </mxGeometry>
        </mxCell>
        <mxCell id="hFf1qqq5Lb1legIOFx4f-84" style="edgeStyle=orthogonalEdgeStyle;rounded=0;orthogonalLoop=1;jettySize=auto;html=1;exitX=0.5;exitY=1;exitDx=0;exitDy=0;startArrow=block;startFill=1;endArrow=none;endFill=0;shape=flexArrow;fontStyle=1;fillColor=#647687;strokeColor=#314354;" parent="1" edge="1">
          <mxGeometry relative="1" as="geometry">
            <mxPoint x="415" y="520" as="targetPoint" />
            <mxPoint x="415" y="480" as="sourcePoint" />
          </mxGeometry>
        </mxCell>
        <mxCell id="hFf1qqq5Lb1legIOFx4f-85" value="" style="endArrow=none;dashed=1;html=1;startSize=9;strokeWidth=2;dashPattern=1 1;" parent="1" edge="1">
          <mxGeometry width="50" height="50" relative="1" as="geometry">
            <mxPoint x="480" y="500" as="sourcePoint" />
            <mxPoint x="570" y="500" as="targetPoint" />
          </mxGeometry>
        </mxCell>
        <mxCell id="hFf1qqq5Lb1legIOFx4f-88" value="" style="endArrow=none;dashed=1;html=1;startSize=9;strokeWidth=2;dashPattern=1 1;" parent="1" edge="1">
          <mxGeometry width="50" height="50" relative="1" as="geometry">
            <mxPoint x="480" y="100" as="sourcePoint" />
            <mxPoint x="570" y="100" as="targetPoint" />
          </mxGeometry>
        </mxCell>
        <mxCell id="hFf1qqq5Lb1legIOFx4f-89" value="" style="endArrow=none;dashed=1;html=1;startSize=9;strokeWidth=2;dashPattern=1 1;strokeColor=#6666FF;" parent="1" edge="1">
          <mxGeometry width="50" height="50" relative="1" as="geometry">
            <mxPoint x="190" y="345" as="sourcePoint" />
            <mxPoint x="190" y="375" as="targetPoint" />
          </mxGeometry>
        </mxCell>
        <mxCell id="PcKTHdudarQr2u9cruFc-1" value="" style="endArrow=classic;html=1;strokeColor=#FF6666;fillColor=#FF6666;gradientColor=none;opacity=60;strokeWidth=2;startArrow=oval;startFill=1;startSize=9;" edge="1" parent="1">
          <mxGeometry width="50" height="50" relative="1" as="geometry">
            <mxPoint x="120" y="165" as="sourcePoint" />
            <mxPoint x="20" y="165" as="targetPoint" />
          </mxGeometry>
        </mxCell>
        <mxCell id="PcKTHdudarQr2u9cruFc-2" value="" style="endArrow=classic;html=1;strokeColor=#FF6666;fillColor=#FF6666;gradientColor=none;opacity=60;strokeWidth=2;startArrow=oval;startFill=1;startSize=9;" edge="1" parent="1">
          <mxGeometry width="50" height="50" relative="1" as="geometry">
            <mxPoint x="120" y="185" as="sourcePoint" />
            <mxPoint x="20" y="185" as="targetPoint" />
          </mxGeometry>
        </mxCell>
        <mxCell id="PcKTHdudarQr2u9cruFc-3" value="" style="endArrow=classic;html=1;fillColor=#FF6666;gradientColor=none;opacity=60;strokeWidth=2;strokeColor=#007FFF;" edge="1" parent="1">
          <mxGeometry width="50" height="50" relative="1" as="geometry">
            <mxPoint x="20" y="325" as="sourcePoint" />
            <mxPoint x="120" y="325" as="targetPoint" />
          </mxGeometry>
        </mxCell>
      </root>
    </mxGraphModel>
  </diagram>
</mxfile>
